<mxfile host="app.diagrams.net" agent="Mozilla/5.0 (X11; Linux x86_64; rv:140.0) Gecko/20100101 Firefox/140.0" version="28.0.6">
  <diagram name="Page-1" id="6UXX2KFku_BhxxQ2Ikie">
    <mxGraphModel dx="1640" dy="793" grid="1" gridSize="10" guides="1" tooltips="1" connect="1" arrows="1" fold="1" page="0" pageScale="1" pageWidth="1600" pageHeight="900" math="0" shadow="0">
      <root>
        <mxCell id="0" />
        <mxCell id="1" parent="0" />
        <mxCell id="2xjeaJ_4r9bcOsfO7p9q-16" value="1st Sector Defense Fleet" style="swimlane;whiteSpace=wrap;html=1;" vertex="1" parent="1">
          <mxGeometry x="-400" width="1080" height="680" as="geometry" />
        </mxCell>
        <mxCell id="2xjeaJ_4r9bcOsfO7p9q-31" style="edgeStyle=orthogonalEdgeStyle;rounded=0;orthogonalLoop=1;jettySize=auto;html=1;strokeWidth=2;endArrow=none;endFill=0;" edge="1" parent="2xjeaJ_4r9bcOsfO7p9q-16" source="2xjeaJ_4r9bcOsfO7p9q-3" target="2xjeaJ_4r9bcOsfO7p9q-22">
          <mxGeometry relative="1" as="geometry">
            <Array as="points">
              <mxPoint x="540" y="160" />
              <mxPoint x="120" y="160" />
            </Array>
          </mxGeometry>
        </mxCell>
        <mxCell id="2xjeaJ_4r9bcOsfO7p9q-3" value="SCO Fixt Compton" style="rounded=1;whiteSpace=wrap;html=1;fontFamily=EG Garamond;fontSize=14;fontStyle=0;fontSource=https%3A%2F%2Ffonts.googleapis.com%2Fcss%3Ffamily%3DEG%2BGaramond;" vertex="1" parent="2xjeaJ_4r9bcOsfO7p9q-16">
          <mxGeometry x="480" y="60" width="120" height="60" as="geometry" />
        </mxCell>
        <mxCell id="2xjeaJ_4r9bcOsfO7p9q-30" value="" style="group" vertex="1" connectable="0" parent="2xjeaJ_4r9bcOsfO7p9q-16">
          <mxGeometry x="50" y="200" width="160" height="140" as="geometry" />
        </mxCell>
        <mxCell id="2xjeaJ_4r9bcOsfO7p9q-22" value="&lt;div align=&quot;left&quot;&gt;&lt;br&gt;&lt;/div&gt;" style="rounded=0;whiteSpace=wrap;html=1;align=left;verticalAlign=top;fontFamily=Helvetica;spacing=2;spacingTop=0;" vertex="1" parent="2xjeaJ_4r9bcOsfO7p9q-30">
          <mxGeometry width="160" height="90" as="geometry" />
        </mxCell>
        <mxCell id="2xjeaJ_4r9bcOsfO7p9q-21" value="&lt;div&gt;FSF Concord&lt;/div&gt;" style="rounded=1;whiteSpace=wrap;html=1;fontFamily=EG Garamond;fontSize=14;fontStyle=0;fontSource=https%3A%2F%2Ffonts.googleapis.com%2Fcss%3Ffamily%3DEG%2BGaramond;arcSize=0;" vertex="1" parent="2xjeaJ_4r9bcOsfO7p9q-30">
          <mxGeometry y="90" width="160" height="20" as="geometry" />
        </mxCell>
        <mxCell id="2xjeaJ_4r9bcOsfO7p9q-29" value="&lt;div&gt;Sr. Capt. Julian&lt;/div&gt;" style="rounded=1;whiteSpace=wrap;html=1;fontFamily=EG Garamond;fontSize=14;fontStyle=0;fontSource=https%3A%2F%2Ffonts.googleapis.com%2Fcss%3Ffamily%3DEG%2BGaramond;arcSize=0;" vertex="1" parent="2xjeaJ_4r9bcOsfO7p9q-30">
          <mxGeometry y="110" width="160" height="30" as="geometry" />
        </mxCell>
        <mxCell id="2xjeaJ_4r9bcOsfO7p9q-32" value="" style="group" vertex="1" connectable="0" parent="2xjeaJ_4r9bcOsfO7p9q-16">
          <mxGeometry x="260" y="200" width="160" height="140" as="geometry" />
        </mxCell>
        <mxCell id="2xjeaJ_4r9bcOsfO7p9q-33" value="&lt;div align=&quot;left&quot;&gt;&lt;br&gt;&lt;/div&gt;" style="rounded=0;whiteSpace=wrap;html=1;align=left;verticalAlign=top;fontFamily=Helvetica;spacing=2;spacingTop=0;" vertex="1" parent="2xjeaJ_4r9bcOsfO7p9q-32">
          <mxGeometry width="160" height="90" as="geometry" />
        </mxCell>
        <mxCell id="2xjeaJ_4r9bcOsfO7p9q-34" value="&lt;div&gt;FSF Concord&lt;/div&gt;" style="rounded=1;whiteSpace=wrap;html=1;fontFamily=EG Garamond;fontSize=14;fontStyle=0;fontSource=https%3A%2F%2Ffonts.googleapis.com%2Fcss%3Ffamily%3DEG%2BGaramond;arcSize=0;" vertex="1" parent="2xjeaJ_4r9bcOsfO7p9q-32">
          <mxGeometry y="90" width="160" height="20" as="geometry" />
        </mxCell>
        <mxCell id="2xjeaJ_4r9bcOsfO7p9q-35" value="&lt;div&gt;Sr. Capt. Julian&lt;/div&gt;" style="rounded=1;whiteSpace=wrap;html=1;fontFamily=EG Garamond;fontSize=14;fontStyle=0;fontSource=https%3A%2F%2Ffonts.googleapis.com%2Fcss%3Ffamily%3DEG%2BGaramond;arcSize=0;" vertex="1" parent="2xjeaJ_4r9bcOsfO7p9q-32">
          <mxGeometry y="110" width="160" height="30" as="geometry" />
        </mxCell>
      </root>
    </mxGraphModel>
  </diagram>
</mxfile>
